<?xml version="1.0" standalone="no"?>
<!DOCTYPE svg PUBLIC "-//W3C//DTD SVG 20010904//EN"
 "http://www.w3.org/TR/2001/REC-SVG-20010904/DTD/svg10.dtd">
<svg version="1.0" xmlns="http://www.w3.org/2000/svg"
 width="512.000000pt" height="512.000000pt" viewBox="0 0 512.000000 512.000000"
 preserveAspectRatio="xMidYMid meet">
<metadata>
Created by potrace 1.14, written by Peter Selinger 2001-2017
</metadata>
<g transform="translate(0.000000,512.000000) scale(0.100000,-0.100000)"
fill="#000000" stroke="none">
<path d="M329 5106 c-162 -60 -262 -168 -315 -336 -12 -38 -14 -384 -14 -2211
0 -2139 0 -2167 20 -2224 56 -162 179 -279 335 -320 52 -13 309 -15 2205 -15
2369 0 2206 -4 2318 63 108 64 185 163 220 279 19 66 20 97 20 2210 0 1850 -2
2152 -14 2209 -30 133 -135 262 -264 323 l-65 31 -2205 2 c-1800 1 -2212 -1
-2241 -11z"/>
</g>
</svg>
